<?xml version="1.0" encoding="UTF-8"?>
<svg id="Layer_1" data-name="Layer 1" xmlns="http://www.w3.org/2000/svg" viewBox="0 0 3580 3580">
  <defs>
    <style>
      .cls-1 {
        fill: none;
        stroke: #2f8cab;
      }

      .cls-1, .cls-2 {
        stroke-miterlimit: 10;
        stroke-width: 80px;
      }

      .cls-3 {
        fill: #2f8cab;
      }

      .cls-4 {
        fill: #38a7cc;
      }

      .cls-2 {
        fill: #fffde3;
        stroke: #3aa7cc;
      }
    </style>
  </defs>
  <rect class="cls-2" x="40" y="40" width="3500" height="3500" rx="50" ry="50"/>
  <rect class="cls-1" x="190.13" y="189.83" width="3200" height="3200" rx="50" ry="50"/>
  <polygon class="cls-4" points="567.66 277.65 287.53 557.78 287.53 277.65 567.66 277.65"/>
  <polygon class="cls-4" points="3018.47 3299.1 3298.6 3018.97 3298.6 3299.1 3018.47 3299.1"/>
  <polygon class="cls-4" points="3298.6 277.65 2687.86 277.65 2757.19 346.98 3231.29 346.98 3231.29 346.98 3231.29 346.98 3231.29 821.08 3298.6 888.39 3298.6 277.65"/>
  <polygon class="cls-4" points="287.53 3299.1 898.27 3299.1 828.94 3229.77 354.84 3229.77 354.84 3229.77 354.84 3229.77 354.84 2755.67 287.53 2688.36 287.53 3299.1"/>
  <path class="cls-3" d="M2790,672.62v1261.07c-11.79-13.21-25.36-25.71-41.43-37.5-37.5-27.14-80-44.29-126.43-51.07-20.71-2.86-36.43-21.43-36.43-43.57V536.19c0-13.93,6.78-27.14,17.86-35.71,11.43-8.21,25.71-10.71,39.28-6.79,22.86,6.43,44.29,17.14,63.57,31.07,62.5,45.72,79.29,112.14,83.57,147.86ZM2706.43,1954.05c-27.86-20.36-59.28-33.21-94.28-38.21-9.29-1.43-18.21-3.57-26.43-7.14v98.21c0,19.64-15.71,35.71-35.71,35.71h-1495.71c-20,0-35.71-16.07-35.71-35.71v-555.36c0-19.64,15.71-35.71,35.71-35.71s35.71,16.07,35.71,35.71v76.79h100c19.64,0,35.71,16.07,35.71,35.71s-16.07,35.71-35.71,35.71h-100v371.43h886.43v-139.28c0-20,16.07-35.71,35.71-35.71s35.71,15.71,35.71,35.71v139.28h466.43v-371.43h-341.79c-20,0-35.71-16.07-35.71-35.71s15.71-35.71,35.71-35.71h341.79v-544.64h-542.14l-2.86,287.14c-.36,19.29-16.43,35-35.71,35h-.36c-20,0-35.71-16.07-35.36-36.07l2.86-286.07h-390.71v544.64h502.14c20,0,35.71,16.07,35.71,35.71s-15.71,35.71-35.71,35.71h-502.14v111.07c0,19.64-16.07,35.71-35.71,35.71s-35.71-16.07-35.71-35.71v-727.14h-348.57v272.86c0,19.64-16.07,35.71-35.71,35.71s-35.71-16.07-35.71-35.71v-308.57c0-19.64,15.71-35.71,35.71-35.71h1460v-207.86H992.5c-55.36,0-107.86,21.43-147.5,60-35.36,36.07-55,84.29-55,135.71v1120c0,120.71,98.21,219.29,219.29,219.29h1596.43c61.79,0,118.93-30.36,153.21-81.07,14.64-22.5,24.29-47.14,28.21-72.86-6.07-33.93-25-91.07-80.71-131.43Z"/>
  <path class="cls-3" d="M2790,2596.19v318.27c0,43.6-35.67,79.27-79.27,79.27h-114.15v-238.21c0-22.2-17.83-39.64-39.64-39.64s-39.64,17.44-39.64,39.64v238.21h-175.58v-313.52c0-21.8-17.84-39.64-39.64-39.64s-39.64,17.84-39.64,39.64v313.52h-175.19v-238.21c0-22.2-17.84-39.64-39.64-39.64s-39.64,17.44-39.64,39.64v238.21h-175.58v-313.52c0-21.8-17.84-39.64-39.64-39.64s-39.64,17.84-39.64,39.64v313.52h-175.19v-238.21c0-22.2-17.84-39.64-39.64-39.64s-39.64,17.44-39.64,39.64v238.21h-175.59v-313.52c0-21.8-17.44-39.64-39.64-39.64s-39.64,17.84-39.64,39.64v313.52h-175.19v-238.21c0-22.2-17.84-39.64-39.64-39.64s-39.64,17.44-39.64,39.64v238.21h-120.09c-43.6,0-79.27-35.67-79.27-79.27v-318.27c0-43.6,35.67-79.27,79.27-79.27h1841.46c43.6,0,79.27,35.67,79.27,79.27Z"/>
</svg>